<svg width="512" height="512" viewBox="0 0 512 512" fill="none" xmlns="http://www.w3.org/2000/svg">
<path d="M245.163 464.448C251.435 467.797 259.307 467.797 265.579 464.427C436.501 372.608 448.64 193.216 448.491 142.208C448.474 138.108 447.263 134.102 445.005 130.681C442.746 127.259 439.539 124.571 435.776 122.944L264.021 46.8907C261.288 45.686 258.334 45.0656 255.347 45.0692C252.36 45.0729 249.407 45.7006 246.677 46.912L76.16 122.987C72.4523 124.608 69.2898 127.263 67.0502 130.634C64.8107 134.004 63.5889 137.948 63.5307 141.995C62.8053 192.747 73.024 372.523 245.163 464.448V464.448ZM176.917 207.083L207.083 176.917L256 225.835L304.917 176.917L335.083 207.083L286.165 256L335.083 304.917L304.917 335.083L256 286.165L207.083 335.083L176.917 304.917L225.835 256L176.917 207.083Z" fill="url(#paint0_linear_117_229)"/>
<defs>
<linearGradient id="paint0_linear_117_229" x1="63.4988" y1="256.013" x2="448.793" y2="256.013" gradientUnits="userSpaceOnUse">
<stop stop-color="#3757D5"/>
<stop offset="0.0001" stop-color="#3757D5"/>
<stop offset="1" stop-color="#2747C5"/>
</linearGradient>
</defs>
</svg>
