<svg width="512" height="512" viewBox="0 0 512 512" fill="none" xmlns="http://www.w3.org/2000/svg">
<path d="M468.203 195.819C466.862 191.869 464.394 188.399 461.103 185.836C457.812 183.273 453.843 181.73 449.685 181.397L328.064 171.733L275.435 55.232C273.759 51.4797 271.032 48.2927 267.585 46.0556C264.138 43.8185 260.117 42.627 256.007 42.6247C251.897 42.6224 247.875 43.8096 244.425 46.0429C240.975 48.2762 238.246 51.4602 236.565 55.2107L183.936 171.733L62.3147 181.397C58.2284 181.721 54.3219 183.215 51.0625 185.701C47.8032 188.187 45.3289 191.559 43.9359 195.414C42.5428 199.269 42.2899 203.444 43.2074 207.439C44.1249 211.434 46.1739 215.08 49.1094 217.941L138.987 305.557L107.2 443.2C106.235 447.366 106.544 451.727 108.088 455.715C109.632 459.703 112.338 463.136 115.857 465.567C119.376 467.998 123.544 469.315 127.82 469.347C132.097 469.38 136.285 468.126 139.84 465.749L256 388.309L372.16 465.749C375.794 468.162 380.079 469.404 384.44 469.308C388.801 469.213 393.028 467.784 396.552 465.214C400.077 462.645 402.73 459.057 404.155 454.935C405.58 450.812 405.708 446.352 404.523 442.155L365.504 305.621L462.272 218.539C468.608 212.821 470.933 203.904 468.203 195.819V195.819Z" fill="#FFD012"/>
</svg>
