<svg width="512" height="512" viewBox="0 0 512 512" fill="none" xmlns="http://www.w3.org/2000/svg">
<path d="M448 106.667C448 95.3508 443.505 84.4983 435.503 76.4968C427.502 68.4952 416.649 64 405.333 64H106.667C95.3508 64 84.4983 68.4952 76.4968 76.4968C68.4952 84.4983 64 95.3508 64 106.667V405.333C64 416.649 68.4952 427.502 76.4968 435.503C84.4983 443.505 95.3508 448 106.667 448H405.333C416.649 448 427.502 443.505 435.503 435.503C443.505 427.502 448 416.649 448 405.333V106.667ZM345.749 315.584L315.584 345.749L256 286.165L196.416 345.749L166.251 315.584L225.835 256L166.251 196.416L196.416 166.251L256 225.835L315.584 166.251L345.749 196.416L286.165 256L345.749 315.584Z" fill="url(#paint0_linear_117_231)"/>
<defs>
<linearGradient id="paint0_linear_117_231" x1="64" y1="256" x2="448.3" y2="256" gradientUnits="userSpaceOnUse">
<stop stop-color="#3757D5"/>
<stop offset="0.0001" stop-color="#3757D5"/>
<stop offset="1" stop-color="#2747C5"/>
</linearGradient>
</defs>
</svg>
