<svg width="512" height="512" viewBox="0 0 512 512" fill="none" xmlns="http://www.w3.org/2000/svg">
<path d="M249.9 35H135V51.7V51.7096L135 51.7192C134.951 64.6199 134.812 72.4096 134.016 77.5307C133.601 80.1957 132.973 82.4243 131.933 84.4241C130.89 86.4299 129.581 87.9158 128.229 89.2426C119.444 98.1184 104.044 96.365 97.451 85.7355L97.446 85.7275C96.835 84.7382 96.1896 83.6075 95.6984 82.0547C95.231 80.577 94.9707 78.9353 94.7939 76.9096C94.4484 72.9493 94.349 66.4557 94.2004 54.7635L94.2004 54.7607L93.9606 35.02L74.2202 35.1L74.2101 35.1H74.2C66.1417 35.1 59.6492 35.2245 54.8282 35.4448C49.8094 35.6741 47.0888 35.993 46.1946 36.2295C37.7058 38.5247 29.4854 45.3927 24.9584 54.2634C20.891 62.314 20 67.5744 20 100.2V125H256.1H492.053L491.8 98.2472L491.511 67.6401L488.782 61.8419C488.78 61.8386 488.779 61.8354 488.777 61.8321C483.113 49.8929 469.412 39.4162 455.092 36.2976C451.028 35.512 442.224 35 425.3 35H406V52.7C406 59.0597 405.874 65.2255 405.684 70.0592C405.589 72.4728 405.476 74.583 405.353 76.233C405.247 77.6634 405.104 79.2278 404.845 80.2351C404.403 81.9857 403.459 83.7795 402.517 85.2434C401.534 86.7703 400.293 88.3404 398.957 89.6126C397.393 91.1197 395.793 92.4362 393.714 93.3443C391.679 94.2337 389.559 94.565 387.263 94.7785L387.202 94.7842L387.14 94.7884C384.901 94.9411 382.792 95.0005 380.75 94.54C378.57 94.0485 376.877 93.067 375.237 91.8995C375.152 91.841 375.066 91.7823 374.979 91.7233C373.314 90.5858 371.486 89.3379 370.037 87.7769C368.29 85.8947 367.213 83.7407 366.552 80.9958C365.935 78.4366 365.659 75.2622 365.496 71.2395C365.332 67.1817 365.275 61.9117 365.201 55.0314L365.201 54.9803L365.2 54.954L364.88 35H249.9Z" stroke="url(#paint0_linear_117_205)" stroke-width="10"/>
<path d="M15.2 304.7L15.5 448.5L18.1 455.1C23 467.8 30.8 475.7 42.4 479.7C47.2 481.4 57.8 481.5 252 481.5H456.5L463.2 479.2C476.8 474.5 488.6 464.6 494.3 453L497.5 446.5L497.8 303.8L498 161H256.5H15L15.2 304.7ZM155.9 218.3C157.2 218.9 159.3 220.8 160.4 222.3C162.3 224.9 162.5 226.7 162.8 245.5C163.1 264.1 163 266.3 161.2 270.4C157.7 278.3 156.8 278.5 131.4 278.5C99.9 278.5 101 279.7 101 247.7C101 215.8 99.7 217.1 131.5 217.1C147 217 154.2 217.4 155.9 218.3ZM274.9 218.3C276.2 218.9 278.3 220.8 279.4 222.3C281.3 224.9 281.5 226.7 281.8 245.8C282.2 268.8 281.5 272.8 276.7 276.4C274 278.4 272.6 278.5 251 278.5C218.8 278.5 220 279.8 220 247.7C220 215.8 218.7 217.1 250.5 217.1C266 217 273.2 217.4 274.9 218.3ZM396 218.5C401.5 221.4 402 223.7 402 248C402 280.1 403.6 278.5 371.1 278.5C349.1 278.5 348.4 278.4 345.3 276.2C340.7 272.9 340 269.2 340 247.2C340 226.2 340.6 223 345.5 219.2C348.2 217.1 349.2 217 370.7 217C388.8 217 393.7 217.3 396 218.5ZM157.7 354.8C162.3 358.1 163 361.8 163 383.3C163 403.7 162.4 406.5 157.6 411C154.9 413.5 154.8 413.5 132.4 413.8C111.1 414.1 109.7 414 106.6 412C101.2 408.7 100.9 406.8 101.2 381.7C101.5 359.4 101.5 359.1 103.9 356.6C105.3 355.1 107.8 353.5 109.4 353C111.1 352.5 122 352.2 133.5 352.3C153.6 352.5 154.6 352.6 157.7 354.8ZM276.1 354.3C281.1 357.7 281.5 359.6 281.5 382.9C281.5 394.8 281.2 405.8 280.7 407.3C280.3 408.8 278.5 410.9 276.7 412C273.8 413.8 271.6 414 251.2 414C218.4 414 219.8 415.4 220.2 382C220.5 359.3 220.5 359.1 222.9 356.6C224.3 355.1 226.8 353.5 228.4 353C230.1 352.5 241 352.2 252.5 352.3C270.7 352.5 273.8 352.7 276.1 354.3ZM393.1 353C395 353.6 397.7 355.2 399.1 356.6L401.5 359.2V383.6V408L398.7 410.7L396 413.5H371.6H347.2L344.6 411.1C340.4 407.1 339.8 403.2 340.2 380.8C340.6 351.6 340.1 352.1 370.5 352.1C381 352 391.1 352.5 393.1 353Z" fill="url(#paint1_linear_117_205)"/>
<defs>
<linearGradient id="paint0_linear_117_205" x1="15" y1="80" x2="497" y2="79.9999" gradientUnits="userSpaceOnUse">
<stop stop-color="#3757D5"/>
<stop offset="1" stop-color="#2747C5"/>
</linearGradient>
<linearGradient id="paint1_linear_117_205" x1="15" y1="321.25" x2="498.377" y2="321.25" gradientUnits="userSpaceOnUse">
<stop stop-color="#3757D5"/>
<stop offset="0.0001" stop-color="#3757D5"/>
<stop offset="1" stop-color="#2747C5"/>
</linearGradient>
</defs>
</svg>
