<svg width="512" height="512" viewBox="0 0 512 512" fill="none" xmlns="http://www.w3.org/2000/svg">
<path d="M136.747 341.333H375.253C379.473 341.316 383.592 340.047 387.09 337.689C390.588 335.33 393.309 331.987 394.907 328.082C396.506 324.177 396.91 319.886 396.07 315.752C395.23 311.617 393.182 307.824 390.187 304.853L271.147 185.813C269.164 183.814 266.804 182.227 264.204 181.144C261.605 180.061 258.816 179.503 256 179.503C253.184 179.503 250.395 180.061 247.796 181.144C245.196 182.227 242.837 183.814 240.853 185.813L121.813 304.853C118.818 307.824 116.77 311.617 115.93 315.752C115.09 319.886 115.495 324.177 117.093 328.082C118.691 331.987 121.412 335.33 124.91 337.689C128.408 340.047 132.528 341.316 136.747 341.333V341.333Z" fill="#6D7B93"/>
</svg>
