<svg width="512" height="512" viewBox="0 0 512 512" fill="none" xmlns="http://www.w3.org/2000/svg">
<g clip-path="url(#clip0_117_226)">
<path d="M480 448H117.333C103.188 448 89.6229 442.381 79.621 432.379C69.619 422.377 64 408.812 64 394.667V32C64 23.5131 60.6286 15.3737 54.6274 9.37258C48.6263 3.37142 40.4869 0 32 0C23.5131 0 15.3737 3.37142 9.37258 9.37258C3.37142 15.3737 0 23.5131 0 32L0 394.667C0.033881 425.775 12.4066 455.6 34.4036 477.596C56.4005 499.593 86.225 511.966 117.333 512H480C488.487 512 496.626 508.629 502.627 502.627C508.629 496.626 512 488.487 512 480C512 471.513 508.629 463.374 502.627 457.373C496.626 451.371 488.487 448 480 448Z" fill="black"/>
<path d="M480 448H117.333C103.188 448 89.6229 442.381 79.621 432.379C69.619 422.377 64 408.812 64 394.667V32C64 23.5131 60.6286 15.3737 54.6274 9.37258C48.6263 3.37142 40.4869 0 32 0C23.5131 0 15.3737 3.37142 9.37258 9.37258C3.37142 15.3737 0 23.5131 0 32L0 394.667C0.033881 425.775 12.4066 455.6 34.4036 477.596C56.4005 499.593 86.225 511.966 117.333 512H480C488.487 512 496.626 508.629 502.627 502.627C508.629 496.626 512 488.487 512 480C512 471.513 508.629 463.374 502.627 457.373C496.626 451.371 488.487 448 480 448Z" fill="url(#paint0_linear_117_226)"/>
<path d="M480 84.8214H414.165C409.947 84.8223 405.823 86.0739 402.316 88.4181C398.808 90.7623 396.075 94.0938 394.46 97.9914C392.846 101.889 392.423 106.178 393.246 110.315C394.069 114.453 396.1 118.254 399.083 121.237L414.72 136.853L338.197 213.333C337.207 214.327 336.029 215.115 334.734 215.653C333.438 216.19 332.048 216.467 330.645 216.467C329.242 216.467 327.853 216.19 326.557 215.653C325.261 215.115 324.084 214.327 323.093 213.333L319.467 209.707C305.245 196.121 286.334 188.54 266.667 188.54C246.999 188.54 228.088 196.121 213.867 209.707L126.4 297.173C123.344 300.125 120.906 303.656 119.229 307.56C117.552 311.465 116.669 315.664 116.632 319.913C116.595 324.161 117.405 328.375 119.014 332.308C120.623 336.241 122.999 339.813 126.003 342.818C129.008 345.823 132.581 348.199 136.513 349.808C140.446 351.417 144.66 352.226 148.909 352.189C153.158 352.152 157.357 351.27 161.261 349.593C165.165 347.916 168.696 345.478 171.648 342.421L259.115 254.955C260.106 253.961 261.283 253.173 262.579 252.635C263.874 252.098 265.264 251.821 266.667 251.821C268.07 251.821 269.459 252.098 270.755 252.635C272.051 253.173 273.228 253.961 274.219 254.955L277.845 258.581C292.072 272.157 310.981 279.732 330.645 279.732C350.31 279.732 369.219 272.157 383.445 258.581L459.947 182.101L475.563 197.739C478.545 200.729 482.348 202.766 486.489 203.593C490.63 204.42 494.924 203.999 498.826 202.384C502.728 200.769 506.063 198.032 508.408 194.52C510.753 191.008 512.003 186.879 512 182.656V116.821C512 108.334 508.629 100.195 502.627 94.1939C496.626 88.1928 488.487 84.8214 480 84.8214Z" fill="black"/>
<path d="M480 84.8214H414.165C409.947 84.8223 405.823 86.0739 402.316 88.4181C398.808 90.7623 396.075 94.0938 394.46 97.9914C392.846 101.889 392.423 106.178 393.246 110.315C394.069 114.453 396.1 118.254 399.083 121.237L414.72 136.853L338.197 213.333C337.207 214.327 336.029 215.115 334.734 215.653C333.438 216.19 332.048 216.467 330.645 216.467C329.242 216.467 327.853 216.19 326.557 215.653C325.261 215.115 324.084 214.327 323.093 213.333L319.467 209.707C305.245 196.121 286.334 188.54 266.667 188.54C246.999 188.54 228.088 196.121 213.867 209.707L126.4 297.173C123.344 300.125 120.906 303.656 119.229 307.56C117.552 311.465 116.669 315.664 116.632 319.913C116.595 324.161 117.405 328.375 119.014 332.308C120.623 336.241 122.999 339.813 126.003 342.818C129.008 345.823 132.581 348.199 136.513 349.808C140.446 351.417 144.66 352.226 148.909 352.189C153.158 352.152 157.357 351.27 161.261 349.593C165.165 347.916 168.696 345.478 171.648 342.421L259.115 254.955C260.106 253.961 261.283 253.173 262.579 252.635C263.874 252.098 265.264 251.821 266.667 251.821C268.07 251.821 269.459 252.098 270.755 252.635C272.051 253.173 273.228 253.961 274.219 254.955L277.845 258.581C292.072 272.157 310.981 279.732 330.645 279.732C350.31 279.732 369.219 272.157 383.445 258.581L459.947 182.101L475.563 197.739C478.545 200.729 482.348 202.766 486.489 203.593C490.63 204.42 494.924 203.999 498.826 202.384C502.728 200.769 506.063 198.032 508.408 194.52C510.753 191.008 512.003 186.879 512 182.656V116.821C512 108.334 508.629 100.195 502.627 94.1939C496.626 88.1928 488.487 84.8214 480 84.8214Z" fill="url(#paint1_linear_117_226)"/>
</g>
<defs>
<linearGradient id="paint0_linear_117_226" x1="0" y1="256" x2="512.4" y2="256" gradientUnits="userSpaceOnUse">
<stop stop-color="#3757D5"/>
<stop offset="0.0001" stop-color="#3757D5"/>
<stop offset="1" stop-color="#2747C5"/>
</linearGradient>
<linearGradient id="paint1_linear_117_226" x1="116.631" y1="218.506" x2="512.309" y2="218.506" gradientUnits="userSpaceOnUse">
<stop stop-color="#3757D5"/>
<stop offset="0.0001" stop-color="#3757D5"/>
<stop offset="1" stop-color="#2747C5"/>
</linearGradient>
<clipPath id="clip0_117_226">
<rect width="512" height="512" fill="white"/>
</clipPath>
</defs>
</svg>
