<svg width="512" height="512" viewBox="0 0 512 512" fill="none" xmlns="http://www.w3.org/2000/svg">
<path d="M230 17.1C176.2 21.9 124.7 42 84.4999 73.9C75.0999 81.3 57.1999 98.8 49.4999 108.1C29.7999 131.6 13.6999 162.6 6.59992 190.5C1.69992 209.9 0.599921 219.1 0.699921 240.5C0.699921 267.5 3.39992 283.8 11.4999 307C20.0999 331.9 32.7999 353.9 51.0999 375.6C58.6999 384.7 58.6999 384.9 59.9999 393C63.7999 417.7 55.7999 444.9 38.5999 465.5C29.6999 476.1 28.4999 479.9 31.7999 487.2C33.3999 490.8 34.6999 492.2 38.5999 494C43.2999 496.3 43.5999 496.4 57.3999 495.2C95.1999 492 125.9 478.8 156.1 453L159.7 449.9L171.1 453.4C219.7 468.6 274.9 469.9 325.8 457.1C410.5 435.7 478.4 375.8 502.3 301.5C519.9 246.5 513.1 188.9 483 138C466.1 109.3 438.4 80.7 409 61.4C357.4 27.6 292.7 11.6 230 17.1ZM145.1 197C168.6 201.5 185 224.5 181.2 247.6C178 267.2 163.2 282 143.6 285.2C114.7 290 87.9999 263.3 92.7999 234.4C96.9999 209.2 120.5 192.4 145.1 197ZM265.1 197C288.6 201.5 305 224.5 301.2 247.6C298 267.2 283.2 282 263.6 285.2C234.7 290 208 263.3 212.8 234.4C217 209.2 240.5 192.4 265.1 197ZM385.1 197C408.6 201.5 425 224.5 421.2 247.6C418 267.2 403.2 282 383.6 285.2C354.7 290 328 263.3 332.8 234.4C337 209.2 360.5 192.4 385.1 197Z" fill="url(#paint0_linear_117_244)"/>
<defs>
<linearGradient id="paint0_linear_117_244" x1="0.693848" y1="255.998" x2="512.273" y2="255.998" gradientUnits="userSpaceOnUse">
<stop stop-color="#3757D5"/>
<stop offset="0.0001" stop-color="#3757D5"/>
<stop offset="1" stop-color="#2747C5"/>
</linearGradient>
</defs>
</svg>
