<svg width="512" height="512" viewBox="0 0 512 512" fill="none" xmlns="http://www.w3.org/2000/svg">
<g clip-path="url(#clip0_117_240)">
<path d="M373.333 19.5626C349.311 19.9363 325.812 26.6422 305.211 39.0031C284.609 51.364 267.634 68.9422 256 89.9626C244.366 68.9422 227.391 51.364 206.789 39.0031C186.188 26.6422 162.689 19.9363 138.667 19.5626C100.372 21.2264 64.2924 37.9787 38.31 66.1596C12.3277 94.3404 -1.44534 131.659 5.38736e-06 169.963C5.38736e-06 314.496 233.728 481.429 243.669 488.512L256 497.237L268.331 488.512C278.272 481.472 512 314.496 512 169.963C513.445 131.659 499.672 94.3404 473.69 66.1596C447.708 37.9787 411.628 21.2264 373.333 19.5626V19.5626Z" fill="url(#paint0_linear_117_240)"/>
</g>
<defs>
<linearGradient id="paint0_linear_117_240" x1="-0.103271" y1="258.4" x2="512.503" y2="258.4" gradientUnits="userSpaceOnUse">
<stop stop-color="#3757D5"/>
<stop offset="0.0001" stop-color="#3757D5"/>
<stop offset="1" stop-color="#2747C5"/>
</linearGradient>
<clipPath id="clip0_117_240">
<rect width="512" height="512" fill="white"/>
</clipPath>
</defs>
</svg>
