<svg width="512" height="512" viewBox="0 0 512 512" fill="none" xmlns="http://www.w3.org/2000/svg">
<path d="M235.1 1.09999C199.7 4.79999 161.6 20.5 134 42.7C126 49.1 110.7 64.4 104 72.5C71.8 111.9 55.6 165.8 61.1 215.8C64.5 247.2 76.1 279.6 92.7 304.1C95.9 308.9 132 357.6 173 412.4L247.4 512H256H264.6L339 412.4C380 357.6 416.1 308.9 419.3 304.1C422.5 299.4 428 289.8 431.4 282.9C458.5 228.3 458.7 165 432.1 110.5C395.6 36.1 317.3 -7.40001 235.1 1.09999ZM269.5 132.5C273.4 133.3 280.3 135.8 285 138.1C301.9 146.4 315.7 164.1 319.5 182.5C322.6 197.1 320.7 211 313.9 225C308 236.9 296.9 248 285 253.9C265.7 263.3 246.3 263.3 227 253.9C215.1 248 204 236.9 198.1 225C188.7 205.7 188.7 186.3 198.1 167C206.3 150.3 224 136.4 242 132.6C250.6 130.7 260.9 130.7 269.5 132.5Z" fill="url(#paint0_linear_117_198)"/>
<defs>
<linearGradient id="paint0_linear_117_198" x1="60.0426" y1="256.023" x2="452.195" y2="256.023" gradientUnits="userSpaceOnUse">
<stop stop-color="#3757D5"/>
<stop offset="0.0001" stop-color="#3757D5"/>
<stop offset="1" stop-color="#2747C5"/>
</linearGradient>
</defs>
</svg>
