<svg width="428" height="512" viewBox="0 0 428 512" fill="none" xmlns="http://www.w3.org/2000/svg">
<path d="M383.472 56.3627L214 0.191986L44.5281 56.3627C31.7595 60.5955 20.6493 68.7441 12.7756 79.6508C4.90187 90.5576 0.664985 103.668 0.666749 117.12V256C0.666749 416.512 196.933 505.152 205.339 508.843L212.891 512.192L220.741 509.589C229.189 506.773 427.333 438.976 427.333 256V117.12C427.335 103.668 423.098 90.5576 415.225 79.6508C407.351 68.7441 396.241 60.5955 383.472 56.3627V56.3627ZM223.472 298.432C219.743 302.186 215.305 305.163 210.416 307.188C205.527 309.213 200.284 310.247 194.992 310.229H194.288C188.888 310.147 183.562 308.97 178.63 306.77C173.698 304.57 169.264 301.392 165.595 297.429L116.4 246.229L147.184 216.747L195.056 266.667L305.584 156.139L335.749 186.304L223.472 298.432Z" fill="#FFD012"/>
</svg>
