<svg width="512" height="512" viewBox="0 0 512 512" fill="none" xmlns="http://www.w3.org/2000/svg">
<g clip-path="url(#clip0_117_224)">
<path d="M425.472 56.3627L256 0.191986L86.528 56.3627C73.7595 60.5955 62.6492 68.7441 54.7755 79.6508C46.9018 90.5576 42.6649 103.668 42.6667 117.12V256C42.6667 416.512 238.933 505.152 247.339 508.843L254.891 512.192L262.741 509.589C271.189 506.773 469.333 438.976 469.333 256V117.12C469.335 103.668 465.098 90.5576 457.225 79.6508C449.351 68.7441 438.241 60.5955 425.472 56.3627V56.3627ZM265.472 298.432C261.743 302.186 257.305 305.163 252.416 307.188C247.526 309.213 242.284 310.247 236.992 310.229H236.288C230.888 310.147 225.562 308.97 220.63 306.77C215.698 304.57 211.263 301.392 207.595 297.429L158.4 246.229L189.184 216.747L237.056 266.667L347.584 156.139L377.749 186.304L265.472 298.432Z" fill="url(#paint0_linear_117_224)"/>
</g>
<defs>
<linearGradient id="paint0_linear_117_224" x1="42.6667" y1="256.192" x2="469.667" y2="256.192" gradientUnits="userSpaceOnUse">
<stop stop-color="#3757D5"/>
<stop offset="0.0001" stop-color="#3757D5"/>
<stop offset="1" stop-color="#2747C5"/>
</linearGradient>
<clipPath id="clip0_117_224">
<rect width="512" height="512" fill="white"/>
</clipPath>
</defs>
</svg>
