<svg width="512" height="512" viewBox="0 0 512 512" fill="none" xmlns="http://www.w3.org/2000/svg">
<path d="M231.5 1.09994C183.7 5.99994 140.2 23.0999 101.3 52.0999C88.7 61.5999 61.5 88.6999 52.2 101.2C27.5 134.2 11.6 170.2 4.59999 208.4C-8.80001 280.8 7.79999 351.4 52.2 410.8C61.5 423.3 88.7 450.4 101.3 459.9C137.7 487.1 178.1 503.6 224.5 510.2C236.3 511.9 275.6 511.8 288 510.2C345.9 502.2 397.7 476.5 437.1 436.3C449.7 423.5 452.7 420.1 460.7 409.5C486.7 375.2 503.7 333.2 510.2 287.5C511.9 275.7 511.9 236.3 510.2 224.5C504.4 184.1 490.2 145.8 469.2 114.5C428.1 53.0999 364.9 13.2999 291.5 2.39994C279.2 0.599944 243.7 -0.200056 231.5 1.09994ZM265.3 94.3999C267.5 95.4999 270.3 98.2999 271.6 100.6L274 104.7V175.8V247L318 282.2C351 308.6 362.4 318.2 363.7 320.9C364.6 322.9 365.4 326.8 365.4 329.7C365.4 339.3 357.6 347 347.7 347C345 347 341.4 346.3 339.7 345.5C335.2 343.3 243 269.1 240.6 265.7C238.5 262.9 238.5 261.7 238.2 183.8L238 104.8L240.2 100.9C243.7 94.5999 251.7 90.6999 258.5 91.7999C260.2 91.9999 263.2 93.1999 265.3 94.3999Z" fill="url(#paint0_linear_117_195)"/>
<defs>
<linearGradient id="paint0_linear_117_195" x1="0.0861816" y1="255.948" x2="511.874" y2="255.948" gradientUnits="userSpaceOnUse">
<stop stop-color="#3757D5"/>
<stop offset="0.0001" stop-color="#3757D5"/>
<stop offset="1" stop-color="#2747C5"/>
</linearGradient>
</defs>
</svg>
